<svg width="19" height="16" viewBox="0 0 19 16" fill="none" xmlns="http://www.w3.org/2000/svg">
<path d="M14.4586 5.40005C14.2053 4.93338 13.8386 4.58005 13.3586 4.34005C12.8919 4.08672 12.3386 3.96005 11.6986 3.96005C10.5919 3.96005 9.70526 4.32672 9.03859 5.06005C8.37193 5.78005 8.03859 6.74672 8.03859 7.96005C8.03859 9.25338 8.38526 10.2667 9.07859 11C9.78526 11.72 10.7519 12.08 11.9786 12.08C12.8186 12.08 13.5253 11.8667 14.0986 11.44C14.6853 11.0134 15.1119 10.4 15.3786 9.60005H11.0386V7.08005H18.4786V10.26C18.2253 11.1134 17.7919 11.9067 17.1786 12.64C16.5786 13.3734 15.8119 13.9667 14.8786 14.42C13.9453 14.8734 12.8919 15.1 11.7186 15.1C10.3319 15.1 9.09193 14.8001 7.99859 14.2001C6.91859 13.5867 6.07193 12.74 5.45859 11.66C4.85859 10.58 4.55859 9.34672 4.55859 7.96005C4.55859 6.57338 4.85859 5.34005 5.45859 4.26005C6.07193 3.16672 6.91859 2.32005 7.99859 1.72005C9.07859 1.10672 10.3119 0.800049 11.6986 0.800049C13.3786 0.800049 14.7919 1.20672 15.9386 2.02005C17.0986 2.83338 17.8653 3.96005 18.2386 5.40005H14.4586Z" fill="black"/>
<path d="M3.66023 0.959961V15H0.240234V0.959961H3.66023Z" fill="black"/>
</svg>
